<?xml version="1.0" encoding="utf-8"?>
<!-- Generator: Adobe Illustrator 16.0.0, SVG Export Plug-In . SVG Version: 6.00 Build 0)  -->
<!DOCTYPE svg PUBLIC "-//W3C//DTD SVG 1.1//EN" "http://www.w3.org/Graphics/SVG/1.1/DTD/svg11.dtd">
<svg version="1.1" id="Layer_1" xmlns="http://www.w3.org/2000/svg" xmlns:xlink="http://www.w3.org/1999/xlink" x="0px" y="0px"
	 width="304px" height="297px" viewBox="0 0 304 297" enable-background="new 0 0 304 297" xml:space="preserve">
<path fill="#614A3A" stroke="#000000" stroke-width="2" stroke-miterlimit="10" d="M54.527,171.5"/>
<path fill="#E2B767" stroke="#B12736" stroke-width="2" stroke-linejoin="round" stroke-miterlimit="10" d="M19.353,228h223.346
	c0,0,11.469,55-70.626,55h-86.32C85.752,283,15.73,289,19.353,228z"/>
<path fill="#F8E71C" stroke="#B12736" stroke-width="2" stroke-miterlimit="10" d="M244.714,165.5c0,2.406-1.646,3.5-3.681,3.5
	H21.428c-2.032,0-3.681-1.094-3.681-3.5l0,0c0-2.408,1.648-3.5,3.681-3.5h219.605C243.067,162,244.714,163.092,244.714,165.5
	L244.714,165.5z"/>
<g>
	<g>
		<path fill="#E2B767" d="M244.497,118c0-59-50.164-105.344-112.042-105.344C70.578,12.656,20.416,59,20.416,118H244.497z"/>
		<path fill="none" stroke="#B12736" stroke-width="2" stroke-linejoin="round" stroke-miterlimit="10" d="M244.497,118
			c0-59-50.164-105.344-112.042-105.344C70.578,12.656,20.416,59,20.416,118H244.497z"/>
	</g>
	<g>
		<ellipse fill="#F0E3CA" cx="119.158" cy="24.395" rx="8.752" ry="2.18"/>
		<ellipse fill="#F0E3CA" cx="132.438" cy="32.532" rx="8.753" ry="2.18"/>
		<ellipse fill="#F0E3CA" cx="102.256" cy="32.532" rx="8.753" ry="2.18"/>
		<ellipse fill="#F0E3CA" cx="145.718" cy="24.395" rx="8.753" ry="2.18"/>
		<ellipse fill="#F0E3CA" cx="162.62" cy="32.532" rx="8.752" ry="2.18"/>
	</g>
	
		<ellipse fill="#F0E3CA" stroke="#B12736" stroke-width="2.3694" stroke-miterlimit="10" cx="189.481" cy="71.769" rx="22.033" ry="21.216"/>
	<ellipse fill="#B12736" cx="200.045" cy="74.384" rx="10.262" ry="9.881"/>
</g>
<g>
	<path fill="#B22337" d="M35.766,181.926c6.26-0.008,6.262,1.99,12.522,1.981s6.257-2.01,12.517-2.019
		c7.495-0.011,7.498,1.989,14.993,1.979s7.492-2.012,14.987-2.022c7.294-0.011,7.296,1.99,14.59,1.979
		c7.293-0.011,7.291-2.011,14.584-2.021c7.445-0.011,7.448,1.989,14.893,1.979s7.442-2.012,14.886-2.022
		c7.345-0.011,7.348,1.989,14.691,1.979c7.345-0.011,7.342-2.011,14.686-2.021c6.439-0.01,6.441,1.991,12.881,1.981
		c6.438-0.01,6.436-2.01,12.874-2.02c6.202-0.01,6.205,1.99,12.407,1.981s6.208-2.065,12.41-2.019c6.87,0.052,5.542,2.14,13.436,3.6
		c4.028,0.746,9.119-0.1,13.799,1.478c3.756,1.267,6.769,4.675,10.393,6.654c3.563,1.947,8.109,2.67,11.076,5.458
		c3.47,3.261,4.766,8.266,6.728,12.898c1.74,4.11,4.661,8.418,4.661,13.786c0,7.557-2,7.557-2,15.113s1.71,7.523,1.999,15.075
		c0.253,6.589-0.885,6.709-5.323,11.703c-2.291,2.576-5.222,6.193-11.18,6.193c-7.034,0.168-7.078-1.436-12.482-6.03
		c-2.921-2.483-6.817-5.642-6.817-11.827c0-5.231,2-5.231,2-10.463c0-5.232-2.332-5.307-1.998-10.527
		c0.322-5.041,2.717-5.286-1.335-9.88c-1.727-1.959-5.477-2.307-9.492-3.86c-2.913-1.126-6.064-3.974-10.603-4.551
		c-3.301-0.42-7.204,1.335-11.526,1.335c-7.358,0-7.358-2-14.717-2s-7.358,2-14.717,2c-6.69,0-6.69-2-13.381-2s-6.69,2-13.381,2
		c-7.294,0-7.294-2-14.588-2c-7.293,0-7.293,2-14.587,2c-7.596,0-7.596-2-15.191-2s-7.596,2-15.191,2c-9.055,0-9.055-2-18.109-2
		s-9.055,2-18.109,2c-8.298,0-8.298-2-16.597-2s-8.288,1.911-16.586,2c-3.808,0.041-3.201-1.694-6.997-3.416
		c-2.047-0.928-5.391-0.947-7.017-3.34c-0.972-1.432,0.027-3.979-0.489-6.128c-0.402-1.677-2.603-3.343-2.603-5.535
		c-0.052-2.787,1.874-2.22,2.736-5.248c0.461-1.62-0.585-4.249,0.578-5.892c1.289-1.821,4.314-1.978,6.876-3.066
		C30.894,184.346,32.873,181.926,35.766,181.926z"/>
	<path fill="none" stroke="#B22337" stroke-width="1.1847" stroke-miterlimit="10" d="M35.766,181.926
		c6.26-0.008,6.262,1.99,12.522,1.981s6.257-2.01,12.517-2.019c7.495-0.011,7.498,1.989,14.993,1.979s7.492-2.012,14.987-2.022
		c7.294-0.011,7.296,1.99,14.59,1.979c7.293-0.011,7.291-2.011,14.584-2.021c7.445-0.011,7.448,1.989,14.893,1.979
		s7.442-2.012,14.886-2.022c7.345-0.011,7.348,1.989,14.691,1.979c7.345-0.011,7.342-2.011,14.686-2.021
		c6.439-0.01,6.441,1.991,12.881,1.981c6.438-0.01,6.436-2.01,12.874-2.02c6.202-0.01,6.205,1.99,12.407,1.981
		s6.208-2.065,12.41-2.019c6.87,0.052,5.542,2.14,13.436,3.6c4.028,0.746,9.119-0.1,13.799,1.478
		c3.756,1.267,6.769,4.675,10.393,6.654c3.563,1.947,8.109,2.67,11.076,5.458c3.47,3.261,4.766,8.266,6.728,12.898
		c1.74,4.11,4.661,8.418,4.661,13.786c0,7.557-2,7.557-2,15.113s1.71,7.523,1.999,15.075c0.253,6.589-0.885,6.709-5.323,11.703
		c-2.291,2.576-5.222,6.193-11.18,6.193c-7.034,0.168-7.078-1.436-12.482-6.03c-2.921-2.483-6.817-5.642-6.817-11.827
		c0-5.231,2-5.231,2-10.463c0-5.232-2.332-5.307-1.998-10.527c0.322-5.041,2.717-5.286-1.335-9.88
		c-1.727-1.959-5.477-2.307-9.492-3.86c-2.913-1.126-6.064-3.974-10.603-4.551c-3.301-0.42-7.204,1.335-11.526,1.335
		c-7.358,0-7.358-2-14.717-2s-7.358,2-14.717,2c-6.69,0-6.69-2-13.381-2s-6.69,2-13.381,2c-7.294,0-7.294-2-14.588-2
		c-7.293,0-7.293,2-14.587,2c-7.596,0-7.596-2-15.191-2s-7.596,2-15.191,2c-9.055,0-9.055-2-18.109-2s-9.055,2-18.109,2
		c-8.298,0-8.298-2-16.597-2s-8.288,1.911-16.586,2c-3.808,0.041-3.201-1.694-6.997-3.416c-2.047-0.928-5.391-0.947-7.017-3.34
		c-0.972-1.432,0.027-3.979-0.489-6.128c-0.402-1.677-2.603-3.343-2.603-5.535c-0.052-2.787,1.874-2.22,2.736-5.248
		c0.461-1.62-0.585-4.249,0.578-5.892c1.289-1.821,4.314-1.978,6.876-3.066C30.894,184.346,32.873,181.926,35.766,181.926z"/>
</g>
<rect x="26.422" y="190.405" fill="none" width="218.578" height="25.798"/>
<text transform="matrix(1 0 0 1 26.4219 210.0928)" fill="#E4B672" font-family="'MuseoSans-300'" font-size="28">COMING SOON!</text>
</svg>
