<?xml version="1.0" encoding="utf-8"?>
<!-- Generator: Adobe Illustrator 16.0.0, SVG Export Plug-In . SVG Version: 6.00 Build 0)  -->
<!DOCTYPE svg PUBLIC "-//W3C//DTD SVG 1.1//EN" "http://www.w3.org/Graphics/SVG/1.1/DTD/svg11.dtd">
<svg version="1.1" id="Layer_1" xmlns="http://www.w3.org/2000/svg" xmlns:xlink="http://www.w3.org/1999/xlink" x="0px" y="0px"
	 width="650px" height="1146px" viewBox="0 0 650 1146" enable-background="new 0 0 650 1146" xml:space="preserve">
<rect x="444.507" y="-459.609" transform="matrix(0.5198 0.8543 -0.8543 0.5198 -10.8023 -752.7828)" fill="none" width="439.312" height="147.219"/>
<text transform="matrix(0.515 0.8572 -0.8572 0.515 548.2275 -572.5312)" opacity="0.3" fill="#EEEEEE" font-family="'CaviarDreams-Bold'" font-size="110">shake!</text>
<rect x="341.747" y="186.914" transform="matrix(0.9997 -0.023 0.023 0.9997 -5.2934 11.4355)" fill="none" width="307.161" height="98.625"/>
<text transform="matrix(0.9999 -0.0175 0.0175 0.9999 342.4258 266.8799)" opacity="0.3" fill="#EEEEEE" font-family="'CaviarDreams-Bold'" font-size="110">shake!</text>
<rect x="100.485" y="824.291" transform="matrix(0.9997 -0.023 0.023 0.9997 -19.5889 4.5836)" fill="none" width="178.623" height="61.976"/>
<text transform="matrix(0.9999 -0.0175 0.0175 0.9999 100.7681 867.9932)" opacity="0.3" fill="#EEEEEE" font-family="'CaviarDreams-Bold'" font-size="60">shake!</text>
<rect x="387.361" y="642.57" transform="matrix(0.9997 -0.023 0.023 0.9997 -15.3406 11.123)" fill="none" width="178.623" height="61.976"/>
<text transform="matrix(0.9999 -0.0175 0.0175 0.9999 387.6445 686.2725)" opacity="0.3" fill="#EEEEEE" font-family="'CaviarDreams-Bold'" font-size="60">shake!</text>
<rect x="487.8" y="2.043" transform="matrix(0.9997 -0.023 0.023 0.9997 -0.6063 13.2604)" fill="none" width="178.623" height="61.976"/>
<text transform="matrix(0.9999 -0.0175 0.0175 0.9999 488.083 45.7451)" opacity="0.3" fill="#EEEEEE" font-family="'CaviarDreams-Bold'" font-size="60">shake!</text>
<rect x="259.487" y="251.429" transform="matrix(0.9997 -0.023 0.023 0.9997 -6.215 7.5706)" fill="none" width="134.035" height="45.898"/>
<text transform="matrix(0.9999 -0.0175 0.0175 0.9999 259.6284 280.667)" opacity="0.3" fill="#EEEEEE" font-family="'CaviarDreams-Bold'" font-size="40">shake!</text>
<rect x="274.126" y="981.794" transform="matrix(-0.8773 -0.48 0.48 -0.8773 158.1508 2049.9229)" fill="none" width="134.032" height="45.897"/>
<text transform="matrix(-0.8746 -0.4848 0.4848 -0.8746 402.1855 1032.7578)" opacity="0.3" fill="#EEEEEE" font-family="'CaviarDreams-Bold'" font-size="40">shake!</text>
<polygon fill="none" points="-9.924,708.055 -13,574.059 32.888,573 35.965,706.999 "/>
<text transform="matrix(0.0175 0.9999 -0.9999 0.0175 5.1885 573.6558)" opacity="0.3" fill="#EEEEEE" font-family="'CaviarDreams-Bold'" font-size="40">shake!</text>
<rect x="191.961" y="898.574" transform="matrix(0.8543 -0.5198 0.5198 0.8543 -441.2361 268.8556)" fill="none" width="134.033" height="45.898"/>
<text transform="matrix(0.8572 -0.515 0.515 0.8572 204.2246 960.3818)" opacity="0.3" fill="#EEEEEE" font-family="'CaviarDreams-Bold'" font-size="40">shake!</text>
<g>
	<defs>
		
			<rect x="-10.624" y="368.973" transform="matrix(0.9994 0.0349 -0.0349 0.9994 17.61 -16.3328)" width="974.593" height="254.626"/>
		
			<text id="SVGID_1_" transform="matrix(0.9994 0.0349 -0.0349 0.9994 -13.5654 572.0073)" font-family="'CaviarDreams-Bold'" font-size="310">shake!</text>
	</defs>
	<clipPath id="SVGID_2_">
		<use xlink:href="#SVGID_1_"  overflow="visible"/>
	</clipPath>
	<rect x="5" y="3" clip-path="url(#SVGID_2_)" fill="#F9F9F9" width="640" height="1136"/>
</g>
<g>
	<defs>
		<rect id="SVGID_3_" width="650" height="1146"/>
	</defs>
	<clipPath id="SVGID_4_">
		<use xlink:href="#SVGID_3_"  overflow="visible"/>
	</clipPath>
	<g clip-path="url(#SVGID_4_)">
		
			<rect x="435.092" y="1073.89" transform="matrix(0.9997 -0.023 0.023 0.9997 -25.6347 13.8126)" fill="none" width="307.161" height="98.626"/>
		
			<text transform="matrix(0.9999 -0.0175 0.0175 0.9999 435.7715 1153.8564)" opacity="0.3" fill="#EEEEEE" font-family="'CaviarDreams-Bold'" font-size="110">shake!</text>
	</g>
</g>
<g>
	<defs>
		<rect id="SVGID_5_" width="650" height="1146"/>
	</defs>
	<clipPath id="SVGID_6_">
		<use xlink:href="#SVGID_5_"  overflow="visible"/>
	</clipPath>
	<g clip-path="url(#SVGID_6_)">
		
			<rect x="13.603" y="27.96" transform="matrix(0.023 0.9997 -0.9997 0.023 159.4837 -45.2934)" fill="none" width="178.623" height="61.975"/>
		
			<text transform="matrix(0.0175 0.9999 -0.9999 0.0175 90.2002 -30.0806)" opacity="0.3" fill="#EEEEEE" font-family="'CaviarDreams-Bold'" font-size="60">shake!</text>
	</g>
	<g clip-path="url(#SVGID_6_)">
		
			<rect x="538.635" y="946.165" transform="matrix(0.48 -0.8773 0.8773 0.48 -530.6943 1059.0031)" fill="none" width="178.621" height="61.977"/>
		
			<text transform="matrix(0.4848 -0.8746 0.8746 0.4848 594.415 1060.5898)" opacity="0.3" fill="#EEEEEE" font-family="'CaviarDreams-Bold'" font-size="60">shake!</text>
	</g>
	<g clip-path="url(#SVGID_6_)">
		
			<rect x="319.259" y="781.668" transform="matrix(0.8543 -0.5198 0.5198 0.8543 -366.0218 404.7007)" fill="none" width="439.312" height="147.222"/>
		
			<text transform="matrix(0.8572 -0.515 0.515 0.8572 363.4512 989.4141)" opacity="0.3" fill="#EEEEEE" font-family="'CaviarDreams-Bold'" font-size="140">shake!</text>
	</g>
	<g clip-path="url(#SVGID_6_)">
		<polygon fill="none" points="661.285,80.577 28.825,416.862 -77.269,217.315 555.184,-118.968 		"/>
		
			<text transform="matrix(0.8829 -0.4695 0.4695 0.8829 3.4023 369.0518)" opacity="0.3" fill="#EEEEEE" font-family="'CaviarDreams-Bold'" font-size="242">shake!</text>
	</g>
	<g clip-path="url(#SVGID_6_)">
		
			<rect x="-106.548" y="634.444" transform="matrix(0.8773 0.48 -0.48 0.8773 353.7367 32.6043)" fill="none" width="439.312" height="147.222"/>
		
			<text transform="matrix(0.8746 0.4848 -0.4848 0.8746 -90.8008 623.1367)" opacity="0.3" fill="#EEEEEE" font-family="'CaviarDreams-Bold'" font-size="140">shake!</text>
	</g>
</g>
<g>
	<defs>
		<rect id="SVGID_7_" width="650" height="1146"/>
	</defs>
	<clipPath id="SVGID_8_">
		<use xlink:href="#SVGID_7_"  overflow="visible"/>
	</clipPath>
	<g clip-path="url(#SVGID_8_)">
		
			<rect x="-24.309" y="188.013" transform="matrix(-0.8773 -0.48 0.48 -0.8773 16.9081 442.3231)" fill="none" width="178.622" height="61.974"/>
		
			<text transform="matrix(-0.8746 -0.4848 0.4848 -0.8746 148.4414 252.5283)" opacity="0.3" fill="#EEEEEE" font-family="'CaviarDreams-Bold'" font-size="60">shake!</text>
	</g>
	<g clip-path="url(#SVGID_8_)">
		
			<rect x="-83.711" y="1019.391" transform="matrix(0.5198 0.8543 -0.8543 0.5198 999.0573 408.7725)" fill="none" width="439.312" height="147.219"/>
		
			<text transform="matrix(0.515 0.8572 -0.8572 0.515 20.0088 906.4688)" opacity="0.3" fill="#EEEEEE" font-family="'CaviarDreams-Bold'" font-size="110">shake!</text>
	</g>
</g>
</svg>
